<svg width="36" height="36" viewBox="0 0 36 36" fill="none" xmlns="http://www.w3.org/2000/svg">
<circle cx="18.25" cy="18.0452" r="17.5" fill="black"/>
<path d="M24.0935 27.1652L23.8135 29.1252C23.1335 29.2252 22.4535 29.2652 21.6935 29.2652C19.3935 29.2652 18.5335 28.6852 17.8935 26.9452L17.4535 25.7652C13.8535 25.5052 11.4535 22.6452 11.4535 17.8252C11.4535 12.7052 14.1535 9.78517 18.1135 9.78517C22.0935 9.78517 24.7535 12.6652 24.7535 17.7852C24.7535 22.0852 22.8535 24.8652 19.9335 25.5652L20.1935 26.3252C20.4935 27.0852 20.9535 27.3852 22.1335 27.3852C22.7935 27.3852 23.4135 27.3052 24.0935 27.1652ZM18.1135 11.8852C15.8335 11.8852 14.3135 13.8252 14.3135 17.8052C14.3135 21.7452 15.8335 23.7652 18.1135 23.7652C20.3935 23.7652 21.8935 21.7452 21.8935 17.8052C21.8935 13.8252 20.3935 11.8852 18.1135 11.8852Z" fill="white"/>
</svg>
